<svg width="18" height="20" viewBox="0 0 18 22" fill="none" xmlns="http://www.w3.org/2000/svg">
<path d="M16.7606 2.67969L4.54963 0.523438C4.1579 0.454505 3.75483 0.543974 3.42906 0.772171C3.10329 1.00037 2.88149 1.34861 2.81244 1.74031L0.0233757 17.5841C-0.0107372 17.7782 -0.00626823 17.9771 0.0365271 18.1694C0.0793225 18.3618 0.159605 18.5439 0.272788 18.7052C0.385971 18.8665 0.529835 19.004 0.696158 19.1097C0.862482 19.2154 1.048 19.2873 1.24213 19.3213L13.4531 21.4775C13.6472 21.5117 13.8462 21.5074 14.0387 21.4647C14.2312 21.4219 14.4134 21.3417 14.5748 21.2285C14.7362 21.1153 14.8738 20.9714 14.9795 20.805C15.0853 20.6386 15.1572 20.453 15.1912 20.2588L17.9803 4.415C18.0486 4.02315 17.9585 3.6202 17.7297 3.29478C17.501 2.96936 17.1524 2.74811 16.7606 2.67969ZM13.7118 20L1.49994 17.8438L4.289 2L16.4999 4.15625L13.7118 20ZM5.37556 4.47688C5.4103 4.2811 5.52136 4.10713 5.68433 3.99321C5.8473 3.8793 6.04883 3.83475 6.24463 3.86938L14.0259 5.24281C14.2108 5.27521 14.3769 5.37579 14.4912 5.52467C14.6056 5.67356 14.66 5.85993 14.6436 6.04696C14.6272 6.23399 14.5413 6.40808 14.4028 6.53484C14.2643 6.66159 14.0833 6.73179 13.8956 6.73156C13.8516 6.7315 13.8077 6.72774 13.7643 6.72031L5.98306 5.34594C5.78729 5.3112 5.61332 5.20014 5.4994 5.03717C5.38548 4.87421 5.34094 4.67267 5.37556 4.47688ZM4.85619 7.43188C4.87328 7.33485 4.90932 7.24215 4.96225 7.15906C5.01518 7.07597 5.08397 7.00412 5.16467 6.94762C5.24538 6.89111 5.33642 6.85107 5.43261 6.82976C5.52879 6.80845 5.62823 6.8063 5.72525 6.82344L13.5065 8.19781C13.6927 8.22896 13.8604 8.3292 13.9759 8.47853C14.0915 8.62786 14.1465 8.81527 14.1299 9.00336C14.1133 9.19145 14.0264 9.36637 13.8865 9.49319C13.7466 9.62001 13.5641 9.6894 13.3753 9.6875C13.3309 9.68759 13.2866 9.68351 13.2431 9.67531L5.46181 8.30188C5.26619 8.26671 5.09252 8.15533 4.97897 7.9922C4.86541 7.82907 4.82125 7.62754 4.85619 7.43188ZM4.33588 10.3859C4.37127 10.1907 4.4826 10.0174 4.64549 9.90407C4.80838 9.79073 5.00955 9.74657 5.20494 9.78125L9.09369 10.4647C9.27854 10.4971 9.44453 10.5976 9.5589 10.7464C9.67327 10.8952 9.7277 11.0814 9.71146 11.2684C9.69521 11.4553 9.60946 11.6294 9.47114 11.7562C9.33282 11.8831 9.15198 11.9534 8.96431 11.9534C8.92032 11.9534 8.87642 11.9497 8.83306 11.9422L4.94244 11.255C4.74683 11.22 4.5731 11.1089 4.45937 10.9459C4.34565 10.783 4.30123 10.5816 4.33588 10.3859Z" fill="#F5F6F6"/>
</svg>
